<svg width="32" height="36" viewBox="0 0 32 36" fill="none" xmlns="http://www.w3.org/2000/svg">
<path d="M14.7528 19.8452L9.81968 14.9092L14.7528 9.97312C16.8842 7.84041 16.8842 4.37022 14.7528 2.23751L12.8768 0.360319L4.07805 9.16419L4.07678 9.16292L2.20078 11.0401C1.16784 12.0736 0.599337 13.4477 0.599609 14.909C0.599337 16.3707 1.16784 17.7447 2.20078 18.7782L12.8768 29.458L14.7528 27.5808C16.8843 25.4481 16.8843 21.9779 14.7528 19.8452Z" fill="white"/>
<path d="M29.93 17.4787L19.254 6.79654L17.378 8.67364C15.2465 10.8064 15.2465 14.2766 17.378 16.4093L22.3126 21.347L17.378 26.2847C15.2464 28.4174 15.2464 31.8876 17.378 34.0203L19.254 35.8975L29.93 25.2152C30.9626 24.182 31.5312 22.8082 31.5311 21.3471C31.5312 19.8858 30.9626 18.512 29.93 17.4787Z" fill="white"/>
<path d="M14.3709 9.59088L4.07718 19.8906L2.58341 18.396C0.659695 16.4711 0.659695 13.3503 2.58341 11.4254L12.8771 1.12568L14.3709 2.62033C16.2947 4.54517 16.2947 7.66599 14.3709 9.59088Z" fill="#093968"/>
<g opacity="0.800003">
<g opacity="0.800003">
<path opacity="0.800003" d="M14.3709 20.2272L4.07718 9.92743L2.58341 11.4221C0.659695 13.3469 0.659695 16.4678 2.58341 18.3926L12.8771 28.6924L14.3709 27.1977C16.2947 25.2728 16.2947 22.1521 14.3709 20.2272Z" fill="#015BA7"/>
</g>
</g>
<path d="M17.7612 26.6676L28.0549 16.3679L29.5487 17.8625C31.4724 19.7874 31.4724 22.9082 29.5487 24.8331L19.255 35.1328L17.7612 33.6382C15.8374 31.7133 15.8374 28.5925 17.7612 26.6676Z" fill="#009CEA"/>
<g opacity="0.800003">
<g opacity="0.800003">
<path opacity="0.800003" d="M17.7612 16.0274L28.0549 26.3271L29.5487 24.8325C31.4724 22.9077 31.4724 19.7868 29.5487 17.862L19.255 7.56221L17.7612 9.05685C15.8374 10.9817 15.8374 14.1025 17.7612 16.0274Z" fill="#76E2FF"/>
</g>
</g>
</svg>
